<svg id="visual" viewBox="0 0 900 600" width="900" height="600" xmlns="http://www.w3.org/2000/svg" xmlns:xlink="http://www.w3.org/1999/xlink" version="1.1"><path d="M0 435L21.5 428.2C43 421.3 86 407.7 128.8 408.3C171.7 409 214.3 424 257.2 431.7C300 439.3 343 439.7 385.8 435.7C428.7 431.7 471.3 423.3 514.2 421.2C557 419 600 423 642.8 423.2C685.7 423.3 728.3 419.7 771.2 410.5C814 401.3 857 386.7 878.5 379.3L900 372L900 601L878.5 601C857 601 814 601 771.2 601C728.3 601 685.7 601 642.8 601C600 601 557 601 514.2 601C471.3 601 428.7 601 385.8 601C343 601 300 601 257.2 601C214.3 601 171.7 601 128.8 601C86 601 43 601 21.5 601L0 601Z" fill="#16161d"></path><path d="M0 395L21.5 397.5C43 400 86 405 128.8 409.7C171.7 414.3 214.3 418.7 257.2 426.2C300 433.7 343 444.3 385.8 450.7C428.7 457 471.3 459 514.2 457.3C557 455.7 600 450.3 642.8 447C685.7 443.7 728.3 442.3 771.2 447.2C814 452 857 463 878.5 468.5L900 474L900 601L878.5 601C857 601 814 601 771.2 601C728.3 601 685.7 601 642.8 601C600 601 557 601 514.2 601C471.3 601 428.7 601 385.8 601C343 601 300 601 257.2 601C214.3 601 171.7 601 128.8 601C86 601 43 601 21.5 601L0 601Z" fill="#121219"></path><path d="M0 510L21.5 499.5C43 489 86 468 128.8 458.2C171.7 448.3 214.3 449.7 257.2 454C300 458.3 343 465.7 385.8 474.2C428.7 482.7 471.3 492.3 514.2 498.5C557 504.7 600 507.3 642.8 506.8C685.7 506.3 728.3 502.7 771.2 492.7C814 482.7 857 466.3 878.5 458.2L900 450L900 601L878.5 601C857 601 814 601 771.2 601C728.3 601 685.7 601 642.8 601C600 601 557 601 514.2 601C471.3 601 428.7 601 385.8 601C343 601 300 601 257.2 601C214.3 601 171.7 601 128.8 601C86 601 43 601 21.5 601L0 601Z" fill="#0d0c16"></path><path d="M0 520L21.5 515C43 510 86 500 128.8 494.5C171.7 489 214.3 488 257.2 491.8C300 495.7 343 504.3 385.8 505.3C428.7 506.3 471.3 499.7 514.2 494.5C557 489.3 600 485.7 642.8 490.2C685.7 494.7 728.3 507.3 771.2 512C814 516.7 857 513.3 878.5 511.7L900 510L900 601L878.5 601C857 601 814 601 771.2 601C728.3 601 685.7 601 642.8 601C600 601 557 601 514.2 601C471.3 601 428.7 601 385.8 601C343 601 300 601 257.2 601C214.3 601 171.7 601 128.8 601C86 601 43 601 21.5 601L0 601Z" fill="#070512"></path><path d="M0 574L21.5 571.3C43 568.7 86 563.3 128.8 557.5C171.7 551.7 214.3 545.3 257.2 541C300 536.7 343 534.3 385.8 536.3C428.7 538.3 471.3 544.7 514.2 544.3C557 544 600 537 642.8 536.7C685.7 536.3 728.3 542.7 771.2 543C814 543.3 857 537.7 878.5 534.8L900 532L900 601L878.5 601C857 601 814 601 771.2 601C728.3 601 685.7 601 642.8 601C600 601 557 601 514.2 601C471.3 601 428.7 601 385.8 601C343 601 300 601 257.2 601C214.3 601 171.7 601 128.8 601C86 601 43 601 21.5 601L0 601Z" fill="#000000"></path></svg>