<svg id="visual" viewBox="0 0 420 400" width="420" height="400" xmlns="http://www.w3.org/2000/svg" xmlns:xlink="http://www.w3.org/1999/xlink" version="1.1"><rect x="0" y="0" width="420" height="400" fill="#16161d"></rect><defs><linearGradient id="grad1_0" x1="4.8%" y1="0%" x2="100%" y2="100%"><stop offset="29%" stop-color="#16161d" stop-opacity="1"></stop><stop offset="71%" stop-color="#16161d" stop-opacity="1"></stop></linearGradient></defs><defs><linearGradient id="grad2_0" x1="0%" y1="0%" x2="95.2%" y2="100%"><stop offset="29%" stop-color="#16161d" stop-opacity="1"></stop><stop offset="71%" stop-color="#16161d" stop-opacity="1"></stop></linearGradient></defs><g transform="translate(420, 0)"><path d="M0 174C-20.1 164.7 -40.3 155.3 -61.2 147.8C-82.2 140.3 -104 134.7 -121.6 121.6C-139.3 108.6 -152.7 88.1 -160.8 66.6C-168.8 45.1 -171.4 22.5 -174 0L0 0Z" fill="#CA0707"></path></g><g transform="translate(0, 400)"><path d="M0 -174C18.8 -159.5 37.6 -145.1 56.3 -135.8C74.9 -126.5 93.6 -122.5 112.4 -112.4C131.3 -102.4 150.4 -86.3 160.8 -66.6C171.1 -46.8 172.5 -23.4 174 0L0 0Z" fill="#CA0707"></path></g></svg>