<svg id="visual" viewBox="0 0 900 550" width="900" height="550" xmlns="http://www.w3.org/2000/svg" xmlns:xlink="http://www.w3.org/1999/xlink" version="1.1"><rect x="0" y="0" width="900" height="550" fill="#16161d"></rect><defs><linearGradient id="grad1_0" x1="38.9%" y1="0%" x2="100%" y2="100%"><stop offset="17.272727272727273%" stop-color="#16161d" stop-opacity="1"></stop><stop offset="82.72727272727272%" stop-color="#16161d" stop-opacity="1"></stop></linearGradient></defs><defs><linearGradient id="grad2_0" x1="0%" y1="0%" x2="61.1%" y2="100%"><stop offset="17.272727272727273%" stop-color="#16161d" stop-opacity="1"></stop><stop offset="82.72727272727272%" stop-color="#16161d" stop-opacity="1"></stop></linearGradient></defs><g transform="translate(900, 0)"><path d="M0 316.4C-38.6 307.9 -77.2 299.3 -118.6 286.4C-160 273.5 -204.2 256.3 -223.7 223.7C-243.3 191.2 -238.1 143.2 -249.4 103.3C-260.8 63.5 -288.6 31.7 -316.4 0L0 0Z" fill="#CA0707"></path></g><g transform="translate(0, 550)"><path d="M0 -316.4C39 -309.7 78.1 -302.9 120.2 -290.1C162.2 -277.3 207.4 -258.4 223.7 -223.7C240.1 -189.1 227.7 -138.7 238.4 -98.7C249 -58.8 282.7 -29.4 316.4 0L0 0Z" fill="#CA0707"></path></g></svg>