<svg id="visual" viewBox="0 0 900 100" width="900" height="100" xmlns="http://www.w3.org/2000/svg" xmlns:xlink="http://www.w3.org/1999/xlink" version="1.1"><path d="M0 12L113 18L225 10L338 20L450 17L563 13L675 12L788 12L900 20L900 0L788 0L675 0L563 0L450 0L338 0L225 0L113 0L0 0Z" fill="#16161d"></path><path d="M0 33L113 34L225 33L338 27L450 39L563 34L675 36L788 38L900 35L900 18L788 10L675 10L563 11L450 15L338 18L225 8L113 16L0 10Z" fill="#2e1e3a"></path><path d="M0 47L113 45L225 40L338 36L450 54L563 45L675 44L788 52L900 47L900 33L788 36L675 34L563 32L450 37L338 25L225 31L113 32L0 31Z" fill="#571b4b"></path><path d="M0 63L113 56L225 54L338 60L450 73L563 64L675 72L788 69L900 70L900 45L788 50L675 42L563 43L450 52L338 34L225 38L113 43L0 45Z" fill="#86004a"></path><path d="M0 89L113 90L225 86L338 87L450 97L563 92L675 84L788 95L900 89L900 68L788 67L675 70L563 62L450 71L338 58L225 52L113 54L0 61Z" fill="#b00036"></path><path d="M0 101L113 101L225 101L338 101L450 101L563 101L675 101L788 101L900 101L900 87L788 93L675 82L563 90L450 95L338 85L225 84L113 88L0 87Z" fill="#ca0707"></path></svg>