<svg id="visual" viewBox="0 0 900 100" width="900" height="100" xmlns="http://www.w3.org/2000/svg" xmlns:xlink="http://www.w3.org/1999/xlink" version="1.1"><path d="M0 8L15 8.5C30 9 60 10 90 11.5C120 13 150 15 180 18.7C210 22.3 240 27.7 270 27.2C300 26.7 330 20.3 360 16.2C390 12 420 10 450 11.8C480 13.7 510 19.3 540 18.7C570 18 600 11 630 10.8C660 10.7 690 17.3 720 21.5C750 25.7 780 27.3 810 26.3C840 25.3 870 21.7 885 19.8L900 18L900 0L885 0C870 0 840 0 810 0C780 0 750 0 720 0C690 0 660 0 630 0C600 0 570 0 540 0C510 0 480 0 450 0C420 0 390 0 360 0C330 0 300 0 270 0C240 0 210 0 180 0C150 0 120 0 90 0C60 0 30 0 15 0L0 0Z" fill="#fcf3f1"></path><path d="M0 46L15 43.5C30 41 60 36 90 36.2C120 36.3 150 41.7 180 45.5C210 49.3 240 51.7 270 53.5C300 55.3 330 56.7 360 58.2C390 59.7 420 61.3 450 56.8C480 52.3 510 41.7 540 36C570 30.3 600 29.7 630 31.2C660 32.7 690 36.3 720 39C750 41.7 780 43.3 810 41.3C840 39.3 870 33.7 885 30.8L900 28L900 16L885 17.8C870 19.7 840 23.3 810 24.3C780 25.3 750 23.7 720 19.5C690 15.3 660 8.7 630 8.8C600 9 570 16 540 16.7C510 17.3 480 11.7 450 9.8C420 8 390 10 360 14.2C330 18.3 300 24.7 270 25.2C240 25.7 210 20.3 180 16.7C150 13 120 11 90 9.5C60 8 30 7 15 6.5L0 6Z" fill="#fbc1b4"></path><path d="M0 84L15 82.2C30 80.3 60 76.7 90 74C120 71.3 150 69.7 180 70.2C210 70.7 240 73.3 270 74.5C300 75.7 330 75.3 360 74.8C390 74.3 420 73.7 450 72.5C480 71.3 510 69.7 540 67.8C570 66 600 64 630 65.3C660 66.7 690 71.3 720 72.7C750 74 780 72 810 72.3C840 72.7 870 75.3 885 76.7L900 78L900 26L885 28.8C870 31.7 840 37.3 810 39.3C780 41.3 750 39.7 720 37C690 34.3 660 30.7 630 29.2C600 27.7 570 28.3 540 34C510 39.7 480 50.3 450 54.8C420 59.3 390 57.7 360 56.2C330 54.7 300 53.3 270 51.5C240 49.7 210 47.3 180 43.5C150 39.7 120 34.3 90 34.2C60 34 30 39 15 41.5L0 44Z" fill="#f28f7a"></path><path d="M0 94L15 92.5C30 91 60 88 90 86C120 84 150 83 180 83.2C210 83.3 240 84.7 270 86.7C300 88.7 330 91.3 360 92.3C390 93.3 420 92.7 450 91.5C480 90.3 510 88.7 540 86.3C570 84 600 81 630 80.2C660 79.3 690 80.7 720 82C750 83.3 780 84.7 810 86.8C840 89 870 92 885 93.5L900 95L900 76L885 74.7C870 73.3 840 70.7 810 70.3C780 70 750 72 720 70.7C690 69.3 660 64.7 630 63.3C600 62 570 64 540 65.8C510 67.7 480 69.3 450 70.5C420 71.7 390 72.3 360 72.8C330 73.3 300 73.7 270 72.5C240 71.3 210 68.7 180 68.2C150 67.7 120 69.3 90 72C60 74.7 30 78.3 15 80.2L0 82Z" fill="#e15a42"></path><path d="M0 101L15 101C30 101 60 101 90 101C120 101 150 101 180 101C210 101 240 101 270 101C300 101 330 101 360 101C390 101 420 101 450 101C480 101 510 101 540 101C570 101 600 101 630 101C660 101 690 101 720 101C750 101 780 101 810 101C840 101 870 101 885 101L900 101L900 93L885 91.5C870 90 840 87 810 84.8C780 82.7 750 81.3 720 80C690 78.7 660 77.3 630 78.2C600 79 570 82 540 84.3C510 86.7 480 88.3 450 89.5C420 90.7 390 91.3 360 90.3C330 89.3 300 86.7 270 84.7C240 82.7 210 81.3 180 81.2C150 81 120 82 90 84C60 86 30 89 15 90.5L0 92Z" fill="#ca0707"></path></svg>