<svg id="visual" viewBox="0 0 900 100" width="900" height="100" xmlns="http://www.w3.org/2000/svg" xmlns:xlink="http://www.w3.org/1999/xlink" version="1.1"><path d="M0 9L9.3 8.7C18.7 8.3 37.3 7.7 56.2 9C75 10.3 94 13.7 112.8 13.7C131.7 13.7 150.3 10.3 169 8.8C187.7 7.3 206.3 7.7 225 8.5C243.7 9.3 262.3 10.7 281.2 12.8C300 15 319 18 337.8 19.7C356.7 21.3 375.3 21.7 394 20.8C412.7 20 431.3 18 450 16.8C468.7 15.7 487.3 15.3 506.2 15.3C525 15.3 544 15.7 562.8 15.8C581.7 16 600.3 16 619 15C637.7 14 656.3 12 675 11.5C693.7 11 712.3 12 731.2 12.5C750 13 769 13 787.8 13.5C806.7 14 825.3 15 844 15.2C862.7 15.3 881.3 14.7 890.7 14.3L900 14L900 0L890.7 0C881.3 0 862.7 0 844 0C825.3 0 806.7 0 787.8 0C769 0 750 0 731.2 0C712.3 0 693.7 0 675 0C656.3 0 637.7 0 619 0C600.3 0 581.7 0 562.8 0C544 0 525 0 506.2 0C487.3 0 468.7 0 450 0C431.3 0 412.7 0 394 0C375.3 0 356.7 0 337.8 0C319 0 300 0 281.2 0C262.3 0 243.7 0 225 0C206.3 0 187.7 0 169 0C150.3 0 131.7 0 112.8 0C94 0 75 0 56.2 0C37.3 0 18.7 0 9.3 0L0 0Z" fill="#16161d"></path><path d="M0 27L9.3 26.5C18.7 26 37.3 25 56.2 26C75 27 94 30 112.8 30.5C131.7 31 150.3 29 169 27.2C187.7 25.3 206.3 23.7 225 23C243.7 22.3 262.3 22.7 281.2 24.2C300 25.7 319 28.3 337.8 28.8C356.7 29.3 375.3 27.7 394 27.7C412.7 27.7 431.3 29.3 450 30C468.7 30.7 487.3 30.3 506.2 28.7C525 27 544 24 562.8 22.5C581.7 21 600.3 21 619 21C637.7 21 656.3 21 675 21.2C693.7 21.3 712.3 21.7 731.2 22.7C750 23.7 769 25.3 787.8 25.7C806.7 26 825.3 25 844 25.2C862.7 25.3 881.3 26.7 890.7 27.3L900 28L900 12L890.7 12.3C881.3 12.7 862.7 13.3 844 13.2C825.3 13 806.7 12 787.8 11.5C769 11 750 11 731.2 10.5C712.3 10 693.7 9 675 9.5C656.3 10 637.7 12 619 13C600.3 14 581.7 14 562.8 13.8C544 13.7 525 13.3 506.2 13.3C487.3 13.3 468.7 13.7 450 14.8C431.3 16 412.7 18 394 18.8C375.3 19.7 356.7 19.3 337.8 17.7C319 16 300 13 281.2 10.8C262.3 8.7 243.7 7.3 225 6.5C206.3 5.7 187.7 5.3 169 6.8C150.3 8.3 131.7 11.7 112.8 11.7C94 11.7 75 8.3 56.2 7C37.3 5.7 18.7 6.3 9.3 6.7L0 7Z" fill="#333037"></path><path d="M0 34L9.3 33.7C18.7 33.3 37.3 32.7 56.2 34.3C75 36 94 40 112.8 40.3C131.7 40.7 150.3 37.3 169 34.8C187.7 32.3 206.3 30.7 225 29.8C243.7 29 262.3 29 281.2 30.5C300 32 319 35 337.8 35.7C356.7 36.3 375.3 34.7 394 34.7C412.7 34.7 431.3 36.3 450 37.7C468.7 39 487.3 40 506.2 39C525 38 544 35 562.8 33C581.7 31 600.3 30 619 28.7C637.7 27.3 656.3 25.7 675 25.3C693.7 25 712.3 26 731.2 28.3C750 30.7 769 34.3 787.8 35C806.7 35.7 825.3 33.3 844 32.7C862.7 32 881.3 33 890.7 33.5L900 34L900 26L890.7 25.3C881.3 24.7 862.7 23.3 844 23.2C825.3 23 806.7 24 787.8 23.7C769 23.3 750 21.7 731.2 20.7C712.3 19.7 693.7 19.3 675 19.2C656.3 19 637.7 19 619 19C600.3 19 581.7 19 562.8 20.5C544 22 525 25 506.2 26.7C487.3 28.3 468.7 28.7 450 28C431.3 27.3 412.7 25.7 394 25.7C375.3 25.7 356.7 27.3 337.8 26.8C319 26.3 300 23.7 281.2 22.2C262.3 20.7 243.7 20.3 225 21C206.3 21.7 187.7 23.3 169 25.2C150.3 27 131.7 29 112.8 28.5C94 28 75 25 56.2 24C37.3 23 18.7 24 9.3 24.5L0 25Z" fill="#514c52"></path><path d="M0 42L9.3 41.7C18.7 41.3 37.3 40.7 56.2 41.5C75 42.3 94 44.7 112.8 44C131.7 43.3 150.3 39.7 169 37.8C187.7 36 206.3 36 225 35.7C243.7 35.3 262.3 34.7 281.2 36.7C300 38.7 319 43.3 337.8 44.3C356.7 45.3 375.3 42.7 394 41.8C412.7 41 431.3 42 450 43.7C468.7 45.3 487.3 47.7 506.2 47.2C525 46.7 544 43.3 562.8 40.3C581.7 37.3 600.3 34.7 619 32.7C637.7 30.7 656.3 29.3 675 29.8C693.7 30.3 712.3 32.7 731.2 34.8C750 37 769 39 787.8 39.2C806.7 39.3 825.3 37.7 844 37.7C862.7 37.7 881.3 39.3 890.7 40.2L900 41L900 32L890.7 31.5C881.3 31 862.7 30 844 30.7C825.3 31.3 806.7 33.7 787.8 33C769 32.3 750 28.7 731.2 26.3C712.3 24 693.7 23 675 23.3C656.3 23.7 637.7 25.3 619 26.7C600.3 28 581.7 29 562.8 31C544 33 525 36 506.2 37C487.3 38 468.7 37 450 35.7C431.3 34.3 412.7 32.7 394 32.7C375.3 32.7 356.7 34.3 337.8 33.7C319 33 300 30 281.2 28.5C262.3 27 243.7 27 225 27.8C206.3 28.7 187.7 30.3 169 32.8C150.3 35.3 131.7 38.7 112.8 38.3C94 38 75 34 56.2 32.3C37.3 30.7 18.7 31.3 9.3 31.7L0 32Z" fill="#716a6f"></path><path d="M0 45L9.3 45C18.7 45 37.3 45 56.2 46.7C75 48.3 94 51.7 112.8 51.3C131.7 51 150.3 47 169 45.2C187.7 43.3 206.3 43.7 225 44.3C243.7 45 262.3 46 281.2 48.3C300 50.7 319 54.3 337.8 55.5C356.7 56.7 375.3 55.3 394 53.5C412.7 51.7 431.3 49.3 450 49.2C468.7 49 487.3 51 506.2 50.3C525 49.7 544 46.3 562.8 43.3C581.7 40.3 600.3 37.7 619 37.8C637.7 38 656.3 41 675 41.5C693.7 42 712.3 40 731.2 40.5C750 41 769 44 787.8 45.2C806.7 46.3 825.3 45.7 844 46.8C862.7 48 881.3 51 890.7 52.5L900 54L900 39L890.7 38.2C881.3 37.3 862.7 35.7 844 35.7C825.3 35.7 806.7 37.3 787.8 37.2C769 37 750 35 731.2 32.8C712.3 30.7 693.7 28.3 675 27.8C656.3 27.3 637.7 28.7 619 30.7C600.3 32.7 581.7 35.3 562.8 38.3C544 41.3 525 44.7 506.2 45.2C487.3 45.7 468.7 43.3 450 41.7C431.3 40 412.7 39 394 39.8C375.3 40.7 356.7 43.3 337.8 42.3C319 41.3 300 36.7 281.2 34.7C262.3 32.7 243.7 33.3 225 33.7C206.3 34 187.7 34 169 35.8C150.3 37.7 131.7 41.3 112.8 42C94 42.7 75 40.3 56.2 39.5C37.3 38.7 18.7 39.3 9.3 39.7L0 40Z" fill="#938a8d"></path><path d="M0 55L9.3 54.3C18.7 53.7 37.3 52.3 56.2 54C75 55.7 94 60.3 112.8 59.8C131.7 59.3 150.3 53.7 169 50.8C187.7 48 206.3 48 225 48.3C243.7 48.7 262.3 49.3 281.2 51.8C300 54.3 319 58.7 337.8 60.5C356.7 62.3 375.3 61.7 394 59.7C412.7 57.7 431.3 54.3 450 53.5C468.7 52.7 487.3 54.3 506.2 53.5C525 52.7 544 49.3 562.8 48C581.7 46.7 600.3 47.3 619 48.3C637.7 49.3 656.3 50.7 675 50.3C693.7 50 712.3 48 731.2 48.2C750 48.3 769 50.7 787.8 52.2C806.7 53.7 825.3 54.3 844 56.5C862.7 58.7 881.3 62.3 890.7 64.2L900 66L900 52L890.7 50.5C881.3 49 862.7 46 844 44.8C825.3 43.7 806.7 44.3 787.8 43.2C769 42 750 39 731.2 38.5C712.3 38 693.7 40 675 39.5C656.3 39 637.7 36 619 35.8C600.3 35.7 581.7 38.3 562.8 41.3C544 44.3 525 47.7 506.2 48.3C487.3 49 468.7 47 450 47.2C431.3 47.3 412.7 49.7 394 51.5C375.3 53.3 356.7 54.7 337.8 53.5C319 52.3 300 48.7 281.2 46.3C262.3 44 243.7 43 225 42.3C206.3 41.7 187.7 41.3 169 43.2C150.3 45 131.7 49 112.8 49.3C94 49.7 75 46.3 56.2 44.7C37.3 43 18.7 43 9.3 43L0 43Z" fill="#b5acad"></path><path d="M0 86L9.3 84C18.7 82 37.3 78 56.2 75.8C75 73.7 94 73.3 112.8 72C131.7 70.7 150.3 68.3 169 70.5C187.7 72.7 206.3 79.3 225 78.5C243.7 77.7 262.3 69.3 281.2 67.3C300 65.3 319 69.7 337.8 72.8C356.7 76 375.3 78 394 80.3C412.7 82.7 431.3 85.3 450 85.3C468.7 85.3 487.3 82.7 506.2 82.3C525 82 544 84 562.8 81.5C581.7 79 600.3 72 619 68.8C637.7 65.7 656.3 66.3 675 65.5C693.7 64.7 712.3 62.3 731.2 62.8C750 63.3 769 66.7 787.8 68.2C806.7 69.7 825.3 69.3 844 70.5C862.7 71.7 881.3 74.3 890.7 75.7L900 77L900 64L890.7 62.2C881.3 60.3 862.7 56.7 844 54.5C825.3 52.3 806.7 51.7 787.8 50.2C769 48.7 750 46.3 731.2 46.2C712.3 46 693.7 48 675 48.3C656.3 48.7 637.7 47.3 619 46.3C600.3 45.3 581.7 44.7 562.8 46C544 47.3 525 50.7 506.2 51.5C487.3 52.3 468.7 50.7 450 51.5C431.3 52.3 412.7 55.7 394 57.7C375.3 59.7 356.7 60.3 337.8 58.5C319 56.7 300 52.3 281.2 49.8C262.3 47.3 243.7 46.7 225 46.3C206.3 46 187.7 46 169 48.8C150.3 51.7 131.7 57.3 112.8 57.8C94 58.3 75 53.7 56.2 52C37.3 50.3 18.7 51.7 9.3 52.3L0 53Z" fill="#d8cfce"></path><path d="M0 101L9.3 101C18.7 101 37.3 101 56.2 101C75 101 94 101 112.8 101C131.7 101 150.3 101 169 101C187.7 101 206.3 101 225 101C243.7 101 262.3 101 281.2 101C300 101 319 101 337.8 101C356.7 101 375.3 101 394 101C412.7 101 431.3 101 450 101C468.7 101 487.3 101 506.2 101C525 101 544 101 562.8 101C581.7 101 600.3 101 619 101C637.7 101 656.3 101 675 101C693.7 101 712.3 101 731.2 101C750 101 769 101 787.8 101C806.7 101 825.3 101 844 101C862.7 101 881.3 101 890.7 101L900 101L900 75L890.7 73.7C881.3 72.3 862.7 69.7 844 68.5C825.3 67.3 806.7 67.7 787.8 66.2C769 64.7 750 61.3 731.2 60.8C712.3 60.3 693.7 62.7 675 63.5C656.3 64.3 637.7 63.7 619 66.8C600.3 70 581.7 77 562.8 79.5C544 82 525 80 506.2 80.3C487.3 80.7 468.7 83.3 450 83.3C431.3 83.3 412.7 80.7 394 78.3C375.3 76 356.7 74 337.8 70.8C319 67.7 300 63.3 281.2 65.3C262.3 67.3 243.7 75.7 225 76.5C206.3 77.3 187.7 70.7 169 68.5C150.3 66.3 131.7 68.7 112.8 70C94 71.3 75 71.7 56.2 73.8C37.3 76 18.7 80 9.3 82L0 84Z" fill="#fcf3f1"></path></svg>