<svg id="visual" viewBox="0 0 900 500" width="900" height="500" xmlns="http://www.w3.org/2000/svg" xmlns:xlink="http://www.w3.org/1999/xlink" version="1.1"><rect x="0" y="0" width="900" height="500" fill="#16161d"></rect><defs><linearGradient id="grad1_0" x1="44.4%" y1="0%" x2="100%" y2="100%"><stop offset="13.999999999999998%" stop-color="#16161d" stop-opacity="1"></stop><stop offset="86%" stop-color="#16161d" stop-opacity="1"></stop></linearGradient></defs><defs><linearGradient id="grad2_0" x1="0%" y1="0%" x2="55.6%" y2="100%"><stop offset="13.999999999999998%" stop-color="#16161d" stop-opacity="1"></stop><stop offset="86%" stop-color="#16161d" stop-opacity="1"></stop></linearGradient></defs><g transform="translate(900, 0)"><path d="M0 275C-22.9 224.6 -45.8 174.2 -91 157.6C-136.2 141 -203.8 158.1 -238.2 137.5C-272.5 116.9 -273.8 58.4 -275 0L0 0Z" fill="#CA0707"></path></g><g transform="translate(0, 500)"><path d="M0 -275C26.4 -230.6 52.7 -186.2 97.5 -168.9C142.3 -151.5 205.5 -161.1 238.2 -137.5C270.8 -113.9 272.9 -56.9 275 0L0 0Z" fill="#CA0707"></path></g></svg>