<svg id="visual" viewBox="0 0 900 600" width="900" height="600" xmlns="http://www.w3.org/2000/svg" xmlns:xlink="http://www.w3.org/1999/xlink" version="1.1"><rect width="900" height="600" fill="#16161d"></rect><g><g transform="translate(102 156)"><path d="M0 -91.7L71.7 -57.2L89.4 20.4L39.8 82.6L-39.8 82.6L-89.4 20.4L-71.7 -57.2Z" fill="none" stroke="#CA0707" stroke-width="2"></path></g><g transform="translate(348 351)"><path d="M0 -63L49.3 -39.3L61.4 14L27.3 56.8L-27.3 56.8L-61.4 14L-49.3 -39.3Z" fill="none" stroke="#CA0707" stroke-width="2"></path></g><g transform="translate(864 92)"><path d="M0 -61L47.7 -38L59.5 13.6L26.5 55L-26.5 55L-59.5 13.6L-47.7 -38Z" fill="none" stroke="#CA0707" stroke-width="2"></path></g><g transform="translate(800 415)"><path d="M0 -69L53.9 -43L67.3 15.4L29.9 62.2L-29.9 62.2L-67.3 15.4L-53.9 -43Z" stroke="#CA0707" fill="none" stroke-width="2"></path></g><g transform="translate(569 223)"><path d="M0 -62L48.5 -38.7L60.4 13.8L26.9 55.9L-26.9 55.9L-60.4 13.8L-48.5 -38.7Z" stroke="#CA0707" fill="none" stroke-width="2"></path></g></g></svg>