<svg id="visual" viewBox="0 0 900 100" width="900" height="100" xmlns="http://www.w3.org/2000/svg" xmlns:xlink="http://www.w3.org/1999/xlink" version="1.1"><rect x="0" y="0" width="900" height="100" fill="#16161d"></rect><path d="M0 74L75 65L150 77L225 65L300 70L375 63L450 82L525 69L600 76L675 86L750 73L825 80L900 62L900 0L825 0L750 0L675 0L600 0L525 0L450 0L375 0L300 0L225 0L150 0L75 0L0 0Z" fill="#871400"></path><path d="M0 51L75 66L150 56L225 55L300 68L375 70L450 56L525 66L600 67L675 56L750 55L825 59L900 64L900 0L825 0L750 0L675 0L600 0L525 0L450 0L375 0L300 0L225 0L150 0L75 0L0 0Z" fill="#941401"></path><path d="M0 55L75 40L150 57L225 53L300 57L375 40L450 43L525 48L600 57L675 46L750 41L825 52L900 49L900 0L825 0L750 0L675 0L600 0L525 0L450 0L375 0L300 0L225 0L150 0L75 0L0 0Z" fill="#a11303"></path><path d="M0 43L75 30L150 40L225 44L300 28L375 43L450 29L525 46L600 39L675 32L750 32L825 45L900 34L900 0L825 0L750 0L675 0L600 0L525 0L450 0L375 0L300 0L225 0L150 0L75 0L0 0Z" fill="#af1104"></path><path d="M0 32L75 20L150 25L225 30L300 23L375 18L450 28L525 27L600 29L675 17L750 30L825 25L900 26L900 0L825 0L750 0L675 0L600 0L525 0L450 0L375 0L300 0L225 0L150 0L75 0L0 0Z" fill="#bc0d05"></path><path d="M0 14L75 17L150 19L225 9L300 13L375 15L450 17L525 10L600 8L675 17L750 13L825 12L900 18L900 0L825 0L750 0L675 0L600 0L525 0L450 0L375 0L300 0L225 0L150 0L75 0L0 0Z" fill="#ca0707"></path></svg>