<svg id="visual" viewBox="0 0 900 600" width="900" height="600" xmlns="http://www.w3.org/2000/svg" xmlns:xlink="http://www.w3.org/1999/xlink" version="1.1"><rect x="0" y="0" width="900" height="600" fill="#FCF3F1"></rect><path d="M0 145L75 131L150 144L225 156L300 143L375 143L450 129L525 147L600 126L675 149L750 120L825 156L900 122L900 0L825 0L750 0L675 0L600 0L525 0L450 0L375 0L300 0L225 0L150 0L75 0L0 0Z" fill="#871400"></path><path d="M0 110L75 113L150 94L225 119L300 117L375 121L450 115L525 104L600 112L675 133L750 124L825 120L900 110L900 0L825 0L750 0L675 0L600 0L525 0L450 0L375 0L300 0L225 0L150 0L75 0L0 0Z" fill="#941401"></path><path d="M0 79L75 74L150 104L225 77L300 82L375 89L450 86L525 80L600 76L675 87L750 82L825 101L900 75L900 0L825 0L750 0L675 0L600 0L525 0L450 0L375 0L300 0L225 0L150 0L75 0L0 0Z" fill="#a11303"></path><path d="M0 67L75 55L150 65L225 55L300 75L375 69L450 68L525 63L600 81L675 75L750 59L825 76L900 81L900 0L825 0L750 0L675 0L600 0L525 0L450 0L375 0L300 0L225 0L150 0L75 0L0 0Z" fill="#af1104"></path><path d="M0 58L75 57L150 51L225 34L300 38L375 43L450 52L525 60L600 43L675 60L750 39L825 54L900 45L900 0L825 0L750 0L675 0L600 0L525 0L450 0L375 0L300 0L225 0L150 0L75 0L0 0Z" fill="#bc0d05"></path><path d="M0 37L75 17L150 14L225 31L300 24L375 25L450 19L525 32L600 19L675 36L750 25L825 30L900 23L900 0L825 0L750 0L675 0L600 0L525 0L450 0L375 0L300 0L225 0L150 0L75 0L0 0Z" fill="#ca0707"></path></svg>