<svg id="visual" viewBox="0 0 900 100" width="900" height="100" xmlns="http://www.w3.org/2000/svg" xmlns:xlink="http://www.w3.org/1999/xlink" version="1.1"><rect x="0" y="0" width="900" height="100" fill="#16161d"></rect><path d="M0 18L64 33L129 21L193 23L257 28L321 26L386 15L450 15L514 28L579 28L643 27L707 17L771 19L836 11L900 16L900 101L836 101L771 101L707 101L643 101L579 101L514 101L450 101L386 101L321 101L257 101L193 101L129 101L64 101L0 101Z" fill="#871400"></path><path d="M0 30L64 23L129 33L193 37L257 23L321 31L386 36L450 26L514 28L579 29L643 31L707 32L771 37L836 39L900 26L900 101L836 101L771 101L707 101L643 101L579 101L514 101L450 101L386 101L321 101L257 101L193 101L129 101L64 101L0 101Z" fill="#901401"></path><path d="M0 46L64 42L129 32L193 31L257 32L321 49L386 46L450 45L514 42L579 50L643 46L707 49L771 42L836 35L900 42L900 101L836 101L771 101L707 101L643 101L579 101L514 101L450 101L386 101L321 101L257 101L193 101L129 101L64 101L0 101Z" fill="#9a1302"></path><path d="M0 47L64 57L129 44L193 55L257 44L321 51L386 42L450 41L514 48L579 44L643 41L707 53L771 54L836 56L900 50L900 101L836 101L771 101L707 101L643 101L579 101L514 101L450 101L386 101L321 101L257 101L193 101L129 101L64 101L0 101Z" fill="#a31303"></path><path d="M0 64L64 59L129 59L193 61L257 52L321 61L386 66L450 52L514 61L579 61L643 65L707 66L771 61L836 58L900 60L900 101L836 101L771 101L707 101L643 101L579 101L514 101L450 101L386 101L321 101L257 101L193 101L129 101L64 101L0 101Z" fill="#ad1103"></path><path d="M0 75L64 66L129 71L193 75L257 68L321 75L386 65L450 76L514 65L579 76L643 69L707 62L771 70L836 64L900 75L900 101L836 101L771 101L707 101L643 101L579 101L514 101L450 101L386 101L321 101L257 101L193 101L129 101L64 101L0 101Z" fill="#b60f04"></path><path d="M0 75L64 74L129 76L193 72L257 83L321 81L386 81L450 76L514 81L579 75L643 75L707 77L771 83L836 81L900 79L900 101L836 101L771 101L707 101L643 101L579 101L514 101L450 101L386 101L321 101L257 101L193 101L129 101L64 101L0 101Z" fill="#c00c06"></path><path d="M0 83L64 87L129 93L193 92L257 83L321 91L386 86L450 88L514 90L579 91L643 93L707 88L771 89L836 83L900 87L900 101L836 101L771 101L707 101L643 101L579 101L514 101L450 101L386 101L321 101L257 101L193 101L129 101L64 101L0 101Z" fill="#ca0707"></path></svg>