<svg id="visual" viewBox="0 0 900 200" width="900" height="200" xmlns="http://www.w3.org/2000/svg" xmlns:xlink="http://www.w3.org/1999/xlink" version="1.1"><rect width="900" height="200" fill="#16161d"></rect><g><g transform="translate(5 106)"><path d="M0 -44.6L34.9 -27.8L43.5 9.9L19.3 40.2L-19.3 40.2L-43.5 9.9L-34.9 -27.8Z" stroke="#CA0707" fill="none" stroke-width="2"></path></g><g transform="translate(588 121)"><path d="M0 -40L31.3 -24.9L39 8.9L17.4 36L-17.4 36L-39 8.9L-31.3 -24.9Z" stroke="#CA0707" fill="none" stroke-width="2"></path></g><g transform="translate(389 80)"><path d="M0 -28L21.9 -17.5L27.3 6.2L12.1 25.2L-12.1 25.2L-27.3 6.2L-21.9 -17.5Z" stroke="#CA0707" fill="none" stroke-width="2"></path></g><g transform="translate(747 21)"><path d="M0 -35L27.4 -21.8L34.1 7.8L15.2 31.5L-15.2 31.5L-34.1 7.8L-27.4 -21.8Z" stroke="#CA0707" fill="none" stroke-width="2"></path></g><g transform="translate(298 156)"><path d="M0 -41L32.1 -25.6L40 9.1L17.8 36.9L-17.8 36.9L-40 9.1L-32.1 -25.6Z" stroke="#CA0707" fill="none" stroke-width="2"></path></g><g transform="translate(776 141)"><path d="M0 -43L33.6 -26.8L41.9 9.6L18.7 38.7L-18.7 38.7L-41.9 9.6L-33.6 -26.8Z" stroke="#CA0707" fill="none" stroke-width="2"></path></g><g transform="translate(181 90)"><path d="M0 -28L21.9 -17.5L27.3 6.2L12.1 25.2L-12.1 25.2L-27.3 6.2L-21.9 -17.5Z" stroke="#CA0707" fill="none" stroke-width="2"></path></g><g transform="translate(878 105)"><path d="M0 -39L30.5 -24.3L38 8.7L16.9 35.1L-16.9 35.1L-38 8.7L-30.5 -24.3Z" stroke="#CA0707" fill="none" stroke-width="2"></path></g></g></svg>