<svg id="visual" viewBox="0 0 900 200" width="900" height="200" xmlns="http://www.w3.org/2000/svg" xmlns:xlink="http://www.w3.org/1999/xlink" version="1.1"><rect width="900" height="200" fill="#16161d"></rect><g><g transform="translate(857 195)"><path d="M0 -44.6L34.9 -27.8L43.5 9.9L19.3 40.2L-19.3 40.2L-43.5 9.9L-34.9 -27.8Z" stroke="#CA0707" fill="none" stroke-width="2"></path></g><g transform="translate(861 14)"><path d="M0 -28L21.9 -17.5L27.3 6.2L12.1 25.2L-12.1 25.2L-27.3 6.2L-21.9 -17.5Z" stroke="#CA0707" fill="none" stroke-width="2"></path></g><g transform="translate(544 25)"><path d="M0 -35L27.4 -21.8L34.1 7.8L15.2 31.5L-15.2 31.5L-34.1 7.8L-27.4 -21.8Z" stroke="#CA0707" fill="none" stroke-width="2"></path></g><g transform="translate(686 114)"><path d="M0 -32L25 -20L31.2 7.1L13.9 28.8L-13.9 28.8L-31.2 7.1L-25 -20Z" stroke="#CA0707" fill="none" stroke-width="2"></path></g><g transform="translate(46 54)"><path d="M0 -35L27.4 -21.8L34.1 7.8L15.2 31.5L-15.2 31.5L-34.1 7.8L-27.4 -21.8Z" stroke="#CA0707" fill="none" stroke-width="2"></path></g><g transform="translate(66 169)"><path d="M0 -42L32.8 -26.2L40.9 9.3L18.2 37.8L-18.2 37.8L-40.9 9.3L-32.8 -26.2Z" stroke="#CA0707" fill="none" stroke-width="2"></path></g><g transform="translate(179 148)"><path d="M0 -38L29.7 -23.7L37 8.5L16.5 34.2L-16.5 34.2L-37 8.5L-29.7 -23.7Z" stroke="#CA0707" fill="none" stroke-width="2"></path></g><g transform="translate(365 182)"><path d="M0 -30L23.5 -18.7L29.2 6.7L13 27L-13 27L-29.2 6.7L-23.5 -18.7Z" stroke="#CA0707" fill="none" stroke-width="2"></path></g></g></svg>